<svg width="29" height="29" viewBox="0 0 29 29" fill="none" xmlns="http://www.w3.org/2000/svg">
<g clip-path="url(#clip0_38_28)">
<path d="M21.3574 3.415L7.14261 3.415C4.68161 3.415 3.46291 4.6338 3.46291 7.0479L3.46291 21.3564C3.46291 23.7705 4.68161 24.9893 7.14261 24.9893L21.3574 24.9893C23.8066 24.9893 25.0371 23.7822 25.0371 21.3564L25.0371 7.0479C25.0371 4.6221 23.8066 3.415 21.3574 3.415Z" fill="#B9B28A"/>
<path d="M20.4434 14.2315C20.4434 14.501 20.3496 14.6885 20.1035 14.9346L16.0254 19.0361C15.8613 19.2002 15.6387 19.2822 15.3926 19.2822C14.8769 19.2822 14.5137 18.9072 14.5137 18.4033C14.5137 18.1455 14.6191 17.9229 14.7832 17.7471L16.2832 16.2588L17.7363 15.04L15.1816 15.1455H8.91211C8.38481 15.1455 7.99801 14.7705 7.99801 14.2315C7.99801 13.7041 8.37301 13.3291 8.91211 13.3291H15.1816L17.748 13.4229L16.2832 12.2041L14.7832 10.7158C14.6074 10.5518 14.5137 10.3291 14.5137 10.0713C14.5137 9.56739 14.8769 9.18069 15.3926 9.18069C15.6387 9.18069 15.8613 9.2744 16.0254 9.4385L20.1035 13.5283C20.3262 13.751 20.4434 13.9619 20.4434 14.2315Z" fill="#504B38"/>
</g>
<defs>
<clipPath id="clip0_38_28">
<rect width="21.5742" height="21.5977" fill="white" transform="matrix(-1 0 0 -1 25.0371 25.0127)"/>
</clipPath>
</defs>
</svg>
