<svg width="29" height="29" viewBox="0 0 29 29" fill="none" xmlns="http://www.w3.org/2000/svg">
<g clip-path="url(#clip0_38_28)">
<path d="M6.7168 24.6104H20.9316C23.3926 24.6104 24.6113 23.3916 24.6113 20.9775V6.66895C24.6113 4.25489 23.3926 3.03613 20.9316 3.03613H6.7168C4.26758 3.03613 3.03711 4.24317 3.03711 6.66895V20.9775C3.03711 23.4033 4.26758 24.6104 6.7168 24.6104Z" fill="#B9B28A"/>
<path d="M7.63086 13.7939C7.63086 13.5244 7.72461 13.3369 7.9707 13.0908L12.0488 8.98925C12.2129 8.82519 12.4355 8.74316 12.6816 8.74316C13.1973 8.74316 13.5605 9.11816 13.5605 9.62207C13.5605 9.87988 13.4551 10.1025 13.291 10.2783L11.791 11.7666L10.3379 12.9854L12.8926 12.8799H19.1621C19.6894 12.8799 20.0762 13.2549 20.0762 13.7939C20.0762 14.3213 19.7012 14.6963 19.1621 14.6963H12.8926L10.3262 14.6025L11.791 15.8213L13.291 17.3096C13.4668 17.4736 13.5605 17.6963 13.5605 17.9541C13.5605 18.458 13.1973 18.8447 12.6816 18.8447C12.4355 18.8447 12.2129 18.751 12.0488 18.5869L7.9707 14.4971C7.74805 14.2744 7.63086 14.0635 7.63086 13.7939Z" fill="#504B38"/>
</g>
<defs>
<clipPath id="clip0_38_28">
<rect width="21.5742" height="21.5977" fill="white" transform="translate(3.03711 3.0127)"/>
</clipPath>
</defs>
</svg>
