<svg width="29" height="29" viewBox="0 0 29 29" fill="none" xmlns="http://www.w3.org/2000/svg">
<g clip-path="url(#clip0_42_63)">
<path d="M3.77343 22.8086C2.63672 22.8086 1.95703 22.1289 1.95703 20.9805V20.2656L5.55469 17.125C6.07031 16.668 6.63281 16.4336 7.14843 16.4336C7.72265 16.4336 8.32031 16.668 8.83593 17.1485L11.0742 19.1641L16.6758 14.1953C17.25 13.6797 17.8945 13.4453 18.5625 13.4453C19.207 13.4453 19.875 13.6914 20.4258 14.2071L25.8164 19.1992V21.0039C25.8164 22.1289 25.125 22.8086 24.0117 22.8086H3.77343ZM3.75 24.6836H24.0234C26.4844 24.6836 27.7031 23.4766 27.7031 21.0625V6.74219C27.7031 4.32812 26.4844 3.10938 24.0234 3.10938H3.75C1.30078 3.10938 0.0703125 4.32812 0.0703125 6.74219V21.0625C0.0703125 23.4766 1.30078 24.6836 3.75 24.6836Z" fill="url(#paint0_linear_42_63)"/>
<path d="M8.85937 14.1953C7.26562 14.1953 5.96484 12.8945 5.96484 11.3008C5.96484 9.71875 7.26562 8.40625 8.85937 8.40625C10.4414 8.40625 11.7422 9.71875 11.7422 11.3008C11.7422 12.8945 10.4414 14.1953 8.85937 14.1953Z" fill="#2E2C1D"/>
</g>
<defs>
<linearGradient id="paint0_linear_42_63" x1="13.8867" y1="3.10937" x2="13.8867" y2="24.6836" gradientUnits="userSpaceOnUse">
<stop stop-color="#B4AD86"/>
<stop offset="1" stop-color="#4E4B3A"/>
</linearGradient>
<clipPath id="clip0_42_63">
<rect width="27.6328" height="21.5742" fill="white" transform="translate(0.0703125 3.10938)"/>
</clipPath>
</defs>
</svg>
