<svg width="28" height="28" viewBox="0 0 28 28" fill="none" xmlns="http://www.w3.org/2000/svg">
<g clip-path="url(#clip0_41_41)">
<path d="M14.6914 26.7695C14.7734 26.7461 14.8438 26.7109 14.9258 26.6641L24.1016 21.4375C25.1914 20.8164 25.7773 20.1836 25.7773 18.4844V9.35547C25.7773 9.00391 25.7539 8.72266 25.6836 8.46484L14.6914 14.7461V26.7695ZM13.0859 26.7695V14.7461L2.09375 8.46484C2.02344 8.72266 2 9.00391 2 9.35547V18.4844C2 20.1836 2.59766 20.8164 3.67578 21.4375L12.8633 26.6641C12.9336 26.7109 13.0039 26.7461 13.0859 26.7695ZM13.8945 13.3398L18.8984 10.5039L7.80078 4.16406L3.5 6.61328C3.24219 6.75391 3.03125 6.89453 2.84375 7.07031L13.8945 13.3398ZM20.5273 9.57812L24.9336 7.07031C24.7578 6.89453 24.5469 6.75391 24.2891 6.61328L16.0156 1.90234C15.3008 1.49219 14.5859 1.26953 13.8945 1.26953C13.1914 1.26953 12.4766 1.49219 11.7617 1.90234L9.38281 3.25L20.5273 9.57812Z" fill="url(#paint0_linear_41_41)"/>
</g>
<defs>
<linearGradient id="paint0_linear_41_41" x1="13.8886" y1="1.26953" x2="13.8886" y2="26.7695" gradientUnits="userSpaceOnUse">
<stop stop-color="#B9B28A"/>
<stop offset="1" stop-color="#53503E"/>
</linearGradient>
<clipPath id="clip0_41_41">
<rect width="23.7773" height="25.7695" fill="white" transform="translate(2 1)"/>
</clipPath>
</defs>
</svg>
