<svg width="28" height="28" viewBox="0 0 28 28" fill="none" xmlns="http://www.w3.org/2000/svg">
<g clip-path="url(#clip0_36_32871)">
<path d="M17.0039 24.5977H22.3359C23.8242 24.5977 24.5742 23.8594 24.5742 22.3125V17.0625C24.5742 15.5273 23.8242 14.7773 22.3359 14.7773H17.0039C15.5039 14.7773 14.7539 15.5273 14.7539 17.0625V22.3125C14.7539 23.8594 15.5039 24.5977 17.0039 24.5977Z" fill="url(#paint0_linear_36_32871)"/>
<path d="M5.23828 24.5977H10.582C12.0703 24.5977 12.8203 23.8594 12.8203 22.3125V17.0625C12.8203 15.5273 12.0703 14.7773 10.582 14.7773H5.23828C3.75 14.7773 3 15.5273 3 17.0625V22.3125C3 23.8594 3.75 24.5977 5.23828 24.5977Z" fill="url(#paint1_linear_36_32871)"/>
<path d="M17.0039 12.8438H22.3359C23.8242 12.8438 24.5742 12.0938 24.5742 10.5469V5.30859C24.5742 3.76172 23.8242 3.02344 22.3359 3.02344H17.0039C15.5039 3.02344 14.7539 3.76172 14.7539 5.30859V10.5469C14.7539 12.0938 15.5039 12.8438 17.0039 12.8438Z" fill="url(#paint2_linear_36_32871)"/>
<path d="M5.23828 12.8438H10.582C12.0703 12.8438 12.8203 12.0938 12.8203 10.5469V5.30859C12.8203 3.76172 12.0703 3.02344 10.582 3.02344H5.23828C3.75 3.02344 3 3.76172 3 5.30859V10.5469C3 12.0938 3.75 12.8438 5.23828 12.8438Z" fill="url(#paint3_linear_36_32871)"/>
</g>
<defs>
<linearGradient id="paint0_linear_36_32871" x1="19.6641" y1="14.7773" x2="19.6641" y2="24.5977" gradientUnits="userSpaceOnUse">
<stop stop-color="#B9B28A"/>
<stop offset="1" stop-color="#53503E"/>
</linearGradient>
<linearGradient id="paint1_linear_36_32871" x1="7.91015" y1="14.7773" x2="7.91015" y2="24.5977" gradientUnits="userSpaceOnUse">
<stop stop-color="#B9B28A"/>
<stop offset="1" stop-color="#53503E"/>
</linearGradient>
<linearGradient id="paint2_linear_36_32871" x1="19.6641" y1="3.02344" x2="19.6641" y2="12.8438" gradientUnits="userSpaceOnUse">
<stop stop-color="#B9B28A"/>
<stop offset="1" stop-color="#53503E"/>
</linearGradient>
<linearGradient id="paint3_linear_36_32871" x1="7.91015" y1="3.02344" x2="7.91015" y2="12.8438" gradientUnits="userSpaceOnUse">
<stop stop-color="#B9B28A"/>
<stop offset="1" stop-color="#53503E"/>
</linearGradient>
<clipPath id="clip0_36_32871">
<rect width="21.5742" height="21.5977" fill="white" transform="translate(3 3)"/>
</clipPath>
</defs>
</svg>
