<svg width="28" height="28" viewBox="0 0 28 28" fill="none" xmlns="http://www.w3.org/2000/svg">
<g clip-path="url(#clip0_44_76)">
<path d="M2.35009 17.6641C2.68993 17.5586 2.854 17.207 2.76025 16.8086C2.46728 15.625 2.2915 14.3711 2.35009 12.7305C2.36181 12.2969 2.12743 12.0625 1.77587 12.0391C1.31884 12.0039 1.07275 12.2852 1.03759 12.6484C0.932121 13.9727 1.03759 15.5547 1.49462 17.1836C1.61181 17.582 1.98681 17.7812 2.35009 17.6641ZM1.83447 10.6797C2.17431 10.8086 2.6079 10.6563 2.77196 10.2109C4.65868 4.9375 9.1704 2.3125 13.7524 2.3125C15.8384 2.3125 17.479 2.73438 18.8735 3.53125C19.272 3.76562 19.7173 3.76562 19.8931 3.37891C20.0806 2.96875 19.8696 2.71094 19.5767 2.52344C17.7954 1.41016 15.9907 1 13.7524 1C8.45556 1 3.65087 3.82422 1.49462 9.56641C1.27197 10.1523 1.49462 10.5625 1.83447 10.6797ZM26.2095 14.9336C26.5845 14.9336 26.854 14.6289 26.8188 14.2188C26.2915 9.44922 24.7212 6.4375 22.0142 4.07031C21.6743 3.76562 21.2642 3.85938 21.0649 4.09375C20.8423 4.33984 20.8188 4.72656 21.1704 5.04297C23.479 7.19922 25.1548 9.98828 25.5532 14.2422C25.6001 14.6289 25.8345 14.9336 26.2095 14.9336Z" fill="url(#paint0_linear_44_76)"/>
<path d="M3.71015 21.0625C3.93281 21.3672 4.37812 21.4492 4.70625 21.168C5.55 20.4531 5.97187 19.3047 5.97187 18.1094C5.97187 16.4922 5.26875 15.6719 5.26875 13.6562C5.26875 9.0625 9.08906 5.24219 13.6828 5.24219C19.2258 5.24219 22.8 9.77734 22.8117 16.4688C22.8117 19.082 22.3781 20.9336 21.9445 22C21.7922 22.3633 21.9328 22.75 22.2375 22.9141C22.5656 23.0547 23.0227 22.9375 23.1633 22.5508C23.6203 21.3086 24.1242 19.2695 24.1242 16.457C24.1242 8.99219 20.0109 3.92969 13.6828 3.92969C8.3625 3.92969 3.95625 8.34766 3.95625 13.6562C3.95625 15.5781 4.68281 16.8789 4.69453 18.0977C4.69453 18.8945 4.40156 19.6562 3.85078 20.1367C3.56953 20.3711 3.52265 20.793 3.71015 21.0625Z" fill="url(#paint1_linear_44_76)"/>
<path d="M8.98242 16.8906C8.68945 16.0938 8.20898 15.0859 8.20898 13.7266C8.20898 10.6094 10.6348 8.18359 13.7519 8.18359C14.9472 8.18359 15.3222 8.3125 16.3652 8.81641C16.7285 8.98047 17.0566 8.875 17.1855 8.61719C17.3613 8.28906 17.2676 7.89062 16.8691 7.65625C16.0957 7.19922 14.9121 6.85938 13.7519 6.85938C9.9082 6.85938 6.88477 9.8828 6.88477 13.7266C6.88477 15.2031 7.2832 16.3984 7.69336 17.3945C7.85742 17.7812 8.20898 17.9688 8.63086 17.793C8.98242 17.6523 9.11133 17.2773 8.98242 16.8906Z" fill="url(#paint2_linear_44_76)"/>
<path d="M6.47471 23.2422C7.3419 22.7969 8.52549 21.2734 8.85362 20.0664C8.94737 19.7383 8.79502 19.3398 8.43174 19.2227C8.10362 19.1055 7.75205 19.3047 7.62315 19.6797C7.30674 20.7109 6.75596 21.4844 5.88877 22.0703C5.4669 22.3633 5.4083 22.7266 5.53721 22.9961C5.67783 23.2891 6.05283 23.4531 6.47471 23.2422ZM18.2052 10.3867C19.3419 12.0391 19.9044 14.3242 19.9044 17.0898C19.9044 20.043 19.0841 22.832 17.8067 24.4258C17.5958 24.707 17.5723 25.1055 17.8302 25.3633C18.1114 25.6211 18.5919 25.6094 18.8263 25.293C20.2559 23.3594 21.1934 20.2891 21.1934 17.043C21.1934 13.4922 20.4317 11.3828 19.3653 9.68359C19.1192 9.30859 18.7091 9.19141 18.3809 9.36719C18.0411 9.55469 17.9356 9.98828 18.2052 10.3867Z" fill="url(#paint3_linear_44_76)"/>
<path d="M8.93585 24.7891C10.8577 23.2422 11.9124 20.7812 11.9007 18.0508C11.889 15.9883 11.1507 14.7109 11.1507 13.5859C11.1507 12.1094 12.1936 11.125 13.7171 11.125C16.0608 11.125 16.8225 13.7969 16.8929 16.9609C16.9983 20.6172 15.6741 23.7109 13.9397 25.2344C13.6585 25.4688 13.5999 25.832 13.7874 26.125C14.01 26.4414 14.4671 26.5 14.7718 26.2188C16.5999 24.5547 18.1468 20.8984 18.1233 16.8672C18.1116 12.9297 16.9983 9.8125 13.7171 9.8125C11.5374 9.8125 9.86163 11.2656 9.86163 13.4688C9.86163 14.793 10.5648 16.4219 10.5765 18.0508C10.5882 20.3711 9.721 22.457 8.11553 23.7578C7.79913 24.0156 7.75225 24.3906 7.95147 24.6836C8.19757 25.0234 8.61944 25.0586 8.93585 24.7891Z" fill="url(#paint4_linear_44_76)"/>
<path d="M11.6775 25.7266C12.6033 25.0586 13.7517 23.5234 14.197 22.0234C14.2791 21.7656 14.2205 21.332 13.8455 21.2031C13.447 21.0625 13.1072 21.2617 13.0017 21.5664C12.4041 23.1367 11.6658 24.0625 10.8807 24.6719C10.5877 24.9062 10.5057 25.293 10.7049 25.5977C10.8924 25.9258 11.3494 25.9727 11.6775 25.7266ZM14.865 19.293C15.1931 17.7109 15.0642 15.6836 14.49 13.9258C14.3377 13.4922 13.9978 13.3047 13.6345 13.4219C13.2947 13.5391 13.0838 13.8555 13.2127 14.2656C13.7517 15.9648 13.8455 17.6406 13.576 19.1172C13.5056 19.4688 13.6463 19.8086 14.0564 19.8672C14.4314 19.9375 14.783 19.7148 14.865 19.293Z" fill="url(#paint5_linear_44_76)"/>
</g>
<defs>
<linearGradient id="paint0_linear_44_76" x1="13.9109" y1="1" x2="13.9109" y2="17.6974" gradientUnits="userSpaceOnUse">
<stop stop-color="#9F9877"/>
<stop offset="1" stop-color="#39362B"/>
</linearGradient>
<linearGradient id="paint1_linear_44_76" x1="13.8609" y1="3.92969" x2="13.8609" y2="22.9714" gradientUnits="userSpaceOnUse">
<stop stop-color="#9F9877"/>
<stop offset="1" stop-color="#39362B"/>
</linearGradient>
<linearGradient id="paint2_linear_44_76" x1="12.0776" y1="6.85937" x2="12.0776" y2="17.8593" gradientUnits="userSpaceOnUse">
<stop stop-color="#9F9877"/>
<stop offset="1" stop-color="#39362B"/>
</linearGradient>
<linearGradient id="paint3_linear_44_76" x1="13.335" y1="9.28711" x2="13.335" y2="25.5446" gradientUnits="userSpaceOnUse">
<stop stop-color="#9F9877"/>
<stop offset="1" stop-color="#39362B"/>
</linearGradient>
<linearGradient id="paint4_linear_44_76" x1="12.9778" y1="9.8125" x2="12.9778" y2="26.3996" gradientUnits="userSpaceOnUse">
<stop stop-color="#9F9877"/>
<stop offset="1" stop-color="#39362B"/>
</linearGradient>
<linearGradient id="paint5_linear_44_76" x1="12.819" y1="13.3877" x2="12.819" y2="25.8825" gradientUnits="userSpaceOnUse">
<stop stop-color="#9F9877"/>
<stop offset="1" stop-color="#39362B"/>
</linearGradient>
<clipPath id="clip0_44_76">
<rect width="25.8219" height="25.418" fill="white" transform="translate(1 1)"/>
</clipPath>
</defs>
</svg>
