<svg width="34" height="28" viewBox="0 0 34 28" fill="none" xmlns="http://www.w3.org/2000/svg">
<g clip-path="url(#clip0_41_55)">
<path d="M8.60156 14.0703C10.7812 14.0703 12.6797 12.1016 12.6797 9.55859C12.6797 7.02734 10.7695 5.17578 8.60156 5.17578C6.42188 5.17578 4.51172 7.07422 4.51172 9.58203C4.51172 12.1016 6.41016 14.0703 8.60156 14.0703ZM2.0625 24.6523H15.1172C16.6055 24.6523 17.1797 24.0664 17.1797 23C17.1797 19.7656 13.875 15.8633 8.58984 15.8633C3.30469 15.8633 0 19.7656 0 23C0 24.0664 0.585938 24.6523 2.0625 24.6523Z" fill="url(#paint0_linear_41_55)"/>
<path d="M22.0898 13.8008C24.6094 13.8008 26.7773 11.5508 26.7773 8.62109C26.7773 5.72656 24.5977 3.58203 22.0898 3.58203C19.582 3.58203 17.4023 5.77344 17.4023 8.64453C17.4023 11.5508 19.5703 13.8008 22.0898 13.8008ZM14.7188 24.6523H29.4492C31.2891 24.6523 31.9453 24.125 31.9453 23.0938C31.9453 20.0703 28.1602 15.8984 22.0781 15.8984C16.0078 15.8984 12.2227 20.0703 12.2227 23.0938C12.2227 24.125 12.8789 24.6523 14.7188 24.6523Z" fill="url(#paint1_linear_41_55)"/>
</g>
<defs>
<linearGradient id="paint0_linear_41_55" x1="8.58985" y1="5.17578" x2="8.58985" y2="24.6523" gradientUnits="userSpaceOnUse">
<stop offset="0.255" stop-color="#B7B089"/>
<stop offset="0.935" stop-color="#2E2C1D"/>
</linearGradient>
<linearGradient id="paint1_linear_41_55" x1="22.084" y1="3.58203" x2="22.084" y2="24.6523" gradientUnits="userSpaceOnUse">
<stop offset="0.425" stop-color="#B7B089"/>
<stop offset="1" stop-color="#2E2C1D"/>
</linearGradient>
<clipPath id="clip0_41_55">
<rect width="33.5391" height="24.2461" fill="white" transform="translate(0 2)"/>
</clipPath>
</defs>
</svg>
