<svg width="29" height="29" viewBox="0 0 29 29" fill="none" xmlns="http://www.w3.org/2000/svg">
<g clip-path="url(#clip0_43_70)">
<path d="M0.0195312 4.57325C0.0195312 5.05372 0.417969 5.46388 0.886719 5.46388H4.84765L6.72265 18.3311C6.96875 19.9951 7.84765 21.0381 9.54687 21.0381H23.2226C23.6797 21.0381 24.0781 20.6631 24.0781 20.1592C24.0781 19.6553 23.6797 19.2803 23.2226 19.2803H9.74609C9.07812 19.2803 8.66797 18.8115 8.5625 18.0967L8.375 16.8662H23.2461C24.957 16.8662 25.8359 15.8115 26.082 14.1358L27.0195 7.93653C27.0429 7.78419 27.0664 7.59669 27.0664 7.49122C27.0664 6.92872 26.6445 6.542 26 6.542H6.875L6.64062 5.05372C6.52344 4.15138 6.19531 3.69434 5 3.69434H0.886719C0.417969 3.69434 0.0195312 4.1045 0.0195312 4.57325ZM8.5625 24.835C8.5625 25.9014 9.40625 26.7334 10.4726 26.7334C11.5273 26.7334 12.3711 25.9014 12.3711 24.835C12.3711 23.7803 11.5273 22.9365 10.4726 22.9365C9.40625 22.9365 8.5625 23.7803 8.5625 24.835ZM19.5195 24.835C19.5195 25.9014 20.375 26.7334 21.4297 26.7334C22.4961 26.7334 23.3398 25.9014 23.3398 24.835C23.3398 23.7803 22.4961 22.9365 21.4297 22.9365C20.375 22.9365 19.5195 23.7803 19.5195 24.835Z" fill="url(#paint0_linear_43_70)"/>
</g>
<defs>
<linearGradient id="paint0_linear_43_70" x1="13.543" y1="3.69434" x2="13.543" y2="26.7334" gradientUnits="userSpaceOnUse">
<stop stop-color="#B3AB85"/>
<stop offset="1" stop-color="#4D4A39"/>
</linearGradient>
<clipPath id="clip0_43_70">
<rect width="27.0469" height="24.6914" fill="white" transform="translate(0.0195312 2.04199)"/>
</clipPath>
</defs>
</svg>
