<svg width="28" height="28" viewBox="0 0 28 28" fill="none" xmlns="http://www.w3.org/2000/svg">
<g clip-path="url(#clip0_44_93)">
<path d="M14.7852 3.8555L11.6445 11.8477C11.4336 12.3867 11.1758 13.043 11.1758 13.5586C11.1758 14.0742 11.4336 14.7305 11.6445 15.2695L14.7852 23.2617C14.9609 23.7188 15.3594 24 15.793 24C16.4844 24 17 23.4961 17 22.8164C17 22.4766 16.8008 22.0078 16.6953 21.7031L13.168 12.7266V14.3906L16.6953 5.4141C16.8008 5.1094 17 4.6523 17 4.3008C17 3.6094 16.4844 3.1055 15.793 3.1055C15.3594 3.1055 14.9609 3.3984 14.7852 3.8555Z" fill="#A69F7C"/>
</g>
<defs>
<clipPath id="clip0_44_93">
<rect width="5.82422" height="20.9648" fill="white" transform="matrix(-1 0 0 -1 17 24)"/>
</clipPath>
</defs>
</svg>
